<svg xmlns="http://www.w3.org/2000/svg" xmlns:xlink="http://www.w3.org/1999/xlink" width="24" height="24" viewBox="0 0 24 24">
    <defs>
        <path id="a" d="M10 0c5.523 0 10 4.477 10 10s-4.477 10-10 10S0 15.523 0 10 4.477 0 10 0zm0 2a8 8 0 1 0 0 16 8 8 0 0 0 0-16zM6.043 9.05L14 9.051v3.587C14 14.732 12.736 16 10.91 16h-.026c-2.069 0-3.141-1.58-3.141-3.55v-.736h1.749v.798c0 .967.587 1.531 1.354 1.531h.025c.882 0 1.354-.602 1.354-1.568v-1.493H5.983A.974.974 0 0 1 5 10.017c0-.534.5-.966 1.043-.966h-.06.06zM7.324 5c.65 0 1.178.518 1.178 1.157 0 .64-.528 1.157-1.178 1.157-.65 0-1.178-.517-1.178-1.157C6.146 5.518 6.674 5 7.324 5zm4.826 0c.651 0 1.178.518 1.178 1.157 0 .64-.527 1.157-1.178 1.157-.65 0-1.178-.517-1.178-1.157C10.972 5.518 11.5 5 12.15 5z"/>
    </defs>
    <use fill="#6415B7" fill-rule="nonzero" transform="translate(2 2)" xlink:href="#a"/>
</svg>
