<svg xmlns="http://www.w3.org/2000/svg" width="32" height="32" viewBox="0 0 32 32">
    <g fill="none" fill-rule="evenodd" transform="translate(0 1)">
        <circle cx="18.5" cy="16.5" r="13.5" fill="#E5D1FF"/>
        <circle cx="13.5" cy="13.5" r="13" fill="#FFF" stroke="#510F9D"/>
        <path fill="#9E64E6" d="M11.526 20.135c-.113.212-.28.378-.491.491-.212.114-.43.174-.966.174h-.638c-.537 0-.754-.06-.966-.174a1.181 1.181 0 0 1-.491-.491c-.114-.212-.174-.43-.174-.966v-4.538c0-.537.06-.754.174-.966.113-.212.28-.378.491-.491.212-.114.43-.174.966-.174h.638c.537 0 .754.06.966.174.212.113.378.28.491.491.114.212.174.43.174.966V14.3c0-.235.062-.455.171-.645.054-.144.134-.278.238-.397L16.111 8.7a1.076 1.076 0 0 1 1.6-.02l.161.175a1.3 1.3 0 0 1 .169 1.534L16.524 13h5.072a1.3 1.3 0 0 1 1.234 1.711l-1.734 5.2a1.3 1.3 0 0 1-1.233.889H13a1.3 1.3 0 0 1-1.3-1.3v-.331c0 .537-.06.754-.174.966z"/>
        <path fill="#FFF" d="M8.131 10.4h.638c.537 0 .754.06.966.174.212.113.378.28.491.491.114.212.174.43.174.966v4.538c0 .537-.06.754-.174.966-.113.212-.28.378-.491.491-.212.114-.43.174-.966.174h-.638c-.537 0-.754-.06-.966-.174a1.181 1.181 0 0 1-.491-.491c-.114-.212-.174-.43-.174-.966v-4.538c0-.537.06-.754.174-.966.113-.212.28-.378.491-.491.212-.114.43-.174.966-.174z"/>
        <path fill="#FFF" stroke="#420386" d="M16.33 6c.028.025.055.051.081.08l.161.174a1.3 1.3 0 0 1 .169 1.534L15.224 10.4h5.072a1.3 1.3 0 0 1 1.234 1.711l-1.734 5.2a1.3 1.3 0 0 1-1.233.889H11.7a1.3 1.3 0 0 1-1.3-1.3v-5.2c0-.235.062-.455.171-.645.054-.144.134-.278.238-.397L14.811 6.1A1.076 1.076 0 0 1 16.33 6z"/>
        <path stroke="#420386" d="M8.131 10.4h.638c.537 0 .754.06.966.174.212.113.378.28.491.491.114.212.174.43.174.966v4.538c0 .537-.06.754-.174.966-.113.212-.28.378-.491.491-.212.114-.43.174-.966.174h-.638c-.537 0-.754-.06-.966-.174a1.181 1.181 0 0 1-.491-.491c-.114-.212-.174-.43-.174-.966v-4.538c0-.537.06-.754.174-.966.113-.212.28-.378.491-.491.212-.114.43-.174.966-.174z"/>
    </g>
</svg>
