<svg xmlns="http://www.w3.org/2000/svg" xmlns:xlink="http://www.w3.org/1999/xlink" width="24" height="24" viewBox="0 0 24 24">
    <defs>
        <path id="ingredientPathA" d="M8.506 3.223l.33.005.164.01.273.028.385.063.2.043c.168.04.336.088.503.144l.285.103.227.093.167.075c.082.039.164.08.245.122l.345.185.18.1 1.29.74.258.132c.143.07.28.13.414.18l.2.07.09.025.197.048.108.02.096.013.101.01c.092.007.184.009.277.005l.14-.008.166-.02.027-.005c.093-.015.186-.035.282-.06l.4-.114c1.557-.396 3.29.313 4.13 1.58a5.212 5.212 0 0 1 .388.697c.08.177.146.353.197.529l-.017-.045.058.159c.074.225.136.475.182.7l.077.38c.072.365.124.702.131 1.214l.005.565-.005 1.892c-.004.156-.013.27-.028.372l-.022.119c-.63 2.945-4.606 5.38-8.726 5.889-4.632.571-8.871-1.262-9.192-5.64a17.917 17.917 0 0 1-.044-1.159v-1.074l-.015-1.223V9.82l.014-.268V9.44c0-.257.07-.707.154-1.07l.042-.174.073-.269.104-.336.064-.188.073-.203a8.708 8.708 0 0 1 .266-.627l.077-.16.107-.205.027-.05a7.01 7.01 0 0 1 .309-.51l.185-.265.075-.1.113-.141.193-.225.22-.229.23-.215.166-.14.165-.129.273-.19.245-.15.279-.147.27-.122.294-.111.34-.102.35-.078.232-.037.266-.029.325-.016zm11 8.6a7.615 7.615 0 0 1-.803.765c-1.467 1.214-3.676 2.223-5.604 2.695-2.004.491-5.038.092-7.124-1.054a8.647 8.647 0 0 1-1.462-.98l.016.282c.241 3.282 3.617 4.742 7.514 4.26 3.46-.426 6.791-2.42 7.398-4.536l.049-.207.009-.106.004-.166.004-.953zm-10.92-7.1l-.213.007-.263.027-.168.028-.162.035-.169.045-.178.059-.145.056-.203.092-.155.08-.161.096-.11.072-.139.099-.14.11-.136.118-.153.147-.186.2-.128.153-.06.078-.107.144-.103.152c-.076.116-.149.238-.219.366l-.063.118a6.727 6.727 0 0 0-.334.755c-.067.18-.129.369-.186.566l-.068.248-.042.178-.046.23c-.028.154-.05.302-.058.398l-.003.06v.51l.011.209c.103 1.237.713 1.938 2.199 2.755l.219.113L10.35 8.45l1.2.9-3.177 4.236c1.51.431 3.197.527 4.37.24.459-.112.938-.26 1.419-.436l-.021-.01a2.75 2.75 0 1 1 4-2.45l-.005.156c1.05-1.011 1.345-2.021.806-3.094l-.072-.136a3.652 3.652 0 0 0-.133-.216c-.395-.595-1.164-.997-1.929-1.019l-.176.002c-.176.009-.35.039-.517.092-.41.13-.798.203-1.175.22l-.226.005c-.672-.007-1.32-.188-2.013-.525a9.12 9.12 0 0 1-.3-.153l-.372-.207-.902-.523-.33-.184L7.5 9.742l-1.2-.9 3.035-4.047-.15-.028-.313-.035-.084-.005a3.794 3.794 0 0 0-.204-.005zM15.39 9.68a1.25 1.25 0 1 0 0 2.5 1.25 1.25 0 0 0 0-2.5z"/>
    </defs>
    <g fill="none" fill-rule="evenodd">
        <mask id="ingredientPathB" fill="#fff">
            <use xlink:href="#ingredientPathA"/>
        </mask>
        <use fill="#000" fill-rule="nonzero" xlink:href="#ingredientPathA"/>
        <g fill="#000" mask="url(#ingredientPathB)">
            <path d="M0 0h24v24H0z"/>
        </g>
    </g>
</svg>
