<svg xmlns="http://www.w3.org/2000/svg" xmlns:xlink="http://www.w3.org/1999/xlink" width="32" height="32" viewBox="0 0 32 32">
    <defs>
        <ellipse id="feedSizeIconA" cx="11.677" cy="11.801" rx="9.408" ry="4.301"/>
        <filter id="feedSizeIconB" width="110.6%" height="123.3%" x="-5.3%" y="-11.6%" filterUnits="objectBoundingBox">
            <feOffset dx="-1" dy="-2" in="SourceAlpha" result="shadowOffsetInner1"/>
            <feComposite in="shadowOffsetInner1" in2="SourceAlpha" k2="-1" k3="1" operator="arithmetic" result="shadowInnerInner1"/>
            <feColorMatrix in="shadowInnerInner1" values="0 0 0 0 0.775294118 0 0 0 0 0.62745098 0 0 0 0 0.968627451 0 0 0 1 0"/>
        </filter>
    </defs>
    <g fill="none" fill-rule="evenodd">
        <path fill="#FFF" d="M12.548 10.287c4.998 0 9.085 1.781 9.39 4.031h.018V22.3l-.018.001c-.305 2.25-4.392 4.031-9.39 4.031s-9.085-1.781-9.39-4.03L3.14 22.3V14.32l.018-.001c.305-2.25 4.392-4.031 9.39-4.031z"/>
        <path fill="#C6A0F7" d="M14.558 13.994c4.998 0 9.086 1.782 9.39 4.031l.018.001v6.72l-.018.001c-.304 2.25-4.392 4.031-9.39 4.031-4.997 0-9.085-1.781-9.39-4.03l-.018-.002v-6.72h.019c.304-2.25 4.392-4.032 9.39-4.032z"/>
        <path fill="#420386" fill-rule="nonzero" d="M12.677 9.5c5.684 0 10.408 2.16 10.408 5.3l-.001.077v-.001 7.182c0 3.142-4.723 5.301-10.407 5.301S2.269 25.2 2.269 22.06v-7.183h.002l-.002-.075c0-3.083 4.55-5.22 10.093-5.299l.315-.002zm-9.41 7.651l.002 4.907c0 2.376 4.212 4.301 9.408 4.301s9.408-1.925 9.408-4.3l-.001-4.906c-1.68 1.817-5.292 2.949-9.407 2.949-4.117 0-7.73-1.133-9.41-2.95zm18.521-1.274H3.566c1.044 1.854 4.727 3.225 9.11 3.225 4.384 0 8.067-1.37 9.112-3.225zM12.677 10.5c-5.196 0-9.408 1.926-9.408 4.3l.001.077 18.81-.001.005-.075c0-2.328-4.046-4.224-9.098-4.299l-.31-.002z"/>
        <g transform="translate(1 3)">
            <use fill="#FFF" xlink:href="#feedSizeIconA"/>
            <use fill="#000" filter="url(#feedSizeIconB)" xlink:href="#feedSizeIconA"/>
        </g>
        <path fill="#420386" d="M27.537 9.854l3.005 3.91-.792.61-1.751-2.278v12.05l1.75-2.277.793.61-3.005 3.909-3.237-3.894.769-.64 1.93 2.322v-12.11l-1.93 2.322-.769-.64 2.699-3.248H27l.537-.646zm-4.898-6.75l3.895 3.237-3.91 3.005-.61-.793 2.232-1.716H3.486l2.232 1.716-.61.793L1.2 6.341l3.895-3.237.639.769-2.364 1.964h20.994L22 3.873l.64-.77z"/>
    </g>
</svg>
