<svg xmlns="http://www.w3.org/2000/svg" xmlns:xlink="http://www.w3.org/1999/xlink" width="24" height="24" viewBox="0 0 24 24">
    <defs>
        <path id="wbr8hrde9a" d="M14.501 3c4.136 0 7.5 3.364 7.5 7.5s-3.364 7.5-7.5 7.5H6.82l-3.239 2.314c-.173.123-.376.186-.581.186-.156 0-.313-.037-.458-.111C2.209 20.218 2 19.875 2 19.5L2.001 4c0-.552.447-1 1-1zm0 2h-10.5L4 17.557l1.919-1.371c.169-.121.373-.186.581-.186h8.001c3.032 0 5.5-2.467 5.5-5.5S17.533 5 14.501 5zM12 9.5c.553 0 1 .448 1 1s-.447 1-1 1c-.552 0-1-.448-1-1s.448-1 1-1zm-4.5 0c.553 0 1 .448 1 1s-.447 1-1 1c-.552 0-1-.448-1-1s.448-1 1-1zm9 0c.553 0 1 .448 1 1s-.447 1-1 1c-.552 0-1-.448-1-1s.448-1 1-1z"/>
    </defs>
    <g fill="none" fill-rule="evenodd">
        <g>
            <g>
                <g>
                    <g transform="translate(-64 -142) translate(48 137) translate(0 5) translate(16)">
                        <use fill="#000" xlink:href="#wbr8hrde9a"/>
                    </g>
                </g>
            </g>
        </g>
    </g>
</svg>
