<svg xmlns="http://www.w3.org/2000/svg" xmlns:xlink="http://www.w3.org/1999/xlink" width="24" height="24"
  viewBox="0 0 24 24">
  <defs>
    <path id="pathInstaA"
      d="M8.961 1.01h4.07c1.239.008 1.67.025 2.5.063 1.17.053 1.969.24 2.668.511a5.39 5.39 0 0 1 1.948 1.269A5.39 5.39 0 0 1 21.415 4.8c.247.636.424 1.355.494 2.36l.055 1.235c.02.633.027 1.354.028 3.027l-.006 2.982c-.008.968-.026 1.39-.06 2.133-.053 1.17-.239 1.97-.51 2.67a5.39 5.39 0 0 1-1.269 1.947 5.39 5.39 0 0 1-1.948 1.268c-.636.247-1.354.424-2.359.494l-1.236.055c-.633.02-1.353.027-3.026.028l-2.982-.006a47.305 47.305 0 0 1-2.133-.06c-1.17-.053-1.97-.239-2.67-.51a5.39 5.39 0 0 1-1.947-1.269 5.39 5.39 0 0 1-1.269-1.948C.33 18.57.154 17.852.084 16.847l-.056-1.236A99.727 99.727 0 0 1 0 12.585l.004-2.617C.011 8.73.028 8.3.066 7.47.12 6.3.306 5.5.577 4.8a5.39 5.39 0 0 1 1.269-1.947 5.39 5.39 0 0 1 1.947-1.269c.636-.247 1.355-.423 2.36-.493l1.235-.056c.41-.013.856-.02 1.573-.024zm4.346 1.984H8.686c-.782.006-1.201.018-1.719.04l-.414.018c-1.072.05-1.655.228-2.042.379-.513.2-.88.438-1.264.823a3.407 3.407 0 0 0-.823 1.264c-.139.358-.302.881-.365 1.803l-.042.906c-.022.58-.031 1.131-.034 2.386l.004 3.7c.008.978.024 1.388.058 2.134.05 1.072.228 1.654.38 2.042.199.513.437.88.822 1.264.384.385.75.623 1.264.823l.194.07c.35.12.84.242 1.609.295l1.084.048c.235.008.476.014.773.018l3.12.011c2.667 0 3.03-.013 4.149-.064 1.072-.049 1.654-.228 2.042-.378.513-.2.88-.438 1.264-.823.385-.385.623-.751.823-1.264l.07-.194c.12-.35.242-.841.295-1.61l.05-1.113c.007-.243.013-.496.017-.813l.01-3.06c0-2.658-.013-3.021-.064-4.14-.049-1.071-.228-1.654-.378-2.041-.2-.513-.438-.88-.823-1.264a3.407 3.407 0 0 0-1.264-.823l-.194-.071c-.35-.12-.841-.242-1.61-.294l-.905-.042a46.03 46.03 0 0 0-1.466-.03zm-2.31 3.363a5.647 5.647 0 1 1 0 11.293 5.647 5.647 0 0 1 0-11.293zm0 1.98a3.665 3.665 0 1 0 0 7.332 3.665 3.665 0 0 0 0-7.331zm5.87-3.523a1.32 1.32 0 1 1 0 2.639 1.32 1.32 0 0 1 0-2.64z" />
  </defs>
  <g fill="none" fill-rule="evenodd" transform="translate(1)">
    <mask id="pathInstaB" fill="#fff">
      <use xlink:href="#pathInstaA" />
    </mask>
    <use fill="#FFF" xlink:href="#pathInstaA" />
    <path fill="#FFF" d="M-1-.14h24v24H-1z" mask="url(#pathInstaB)" />
  </g>
</svg>