<svg xmlns="http://www.w3.org/2000/svg" width="74" height="32" viewBox="0 0 74 32">
    <g fill="none" fill-rule="evenodd">
        <path fill="#9E64E6" d="M13 0h48c7.18 0 13 5.82 13 13s-5.82 13-13 13H13C5.82 26 0 20.18 0 13S5.82 0 13 0z"/>
        <path fill="#9E64E6" d="M16 24L24 24 16 32z"/>
        <path fill="#FFF" fill-rule="nonzero" d="M14.278 17.743c.381 0 .735-.057 1.061-.17.327-.114.615-.276.864-.485.25-.209.445-.463.588-.764.143-.3.215-.634.215-1.001 0-.499-.136-.915-.407-1.248-.271-.334-.671-.567-1.199-.699.213-.073.407-.163.583-.27.176-.106.326-.234.451-.384s.22-.329.286-.534c.066-.205.099-.436.099-.693 0-.315-.059-.6-.176-.852-.117-.254-.282-.472-.495-.655-.213-.183-.464-.326-.753-.429-.29-.103-.611-.154-.963-.154-.345 0-.667.051-.968.154-.3.103-.566.251-.798.446-.23.194-.423.434-.577.72-.154.286-.257.612-.308.979l1.001.165c0-.103.015-.227.044-.374.037-.176.099-.337.187-.484.088-.147.2-.273.335-.38.136-.106.29-.19.462-.252.173-.063.362-.094.567-.094.205 0 .398.03.577.088.18.059.334.143.462.253.129.11.228.253.297.429.07.176.105.378.105.605 0 .213-.033.407-.099.583s-.176.328-.33.457c-.154.128-.354.227-.6.296-.245.07-.544.109-.896.116v.726c.425 0 .775.039 1.05.116.276.076.488.181.639.313.15.132.254.29.313.473s.088.385.088.605c0 .183-.037.365-.11.544-.073.18-.18.341-.319.485-.14.143-.317.262-.534.357-.216.095-.467.143-.753.143-.308 0-.56-.048-.753-.143-.195-.095-.369-.227-.523-.396-.154-.169-.286-.367-.396-.594-.088-.205-.143-.37-.165-.495l-.902.374c.095.3.21.58.346.836.136.257.312.48.528.671.217.19.475.341.776.451.3.11.667.165 1.1.165zm6.578.011c.418 0 .807-.082 1.166-.248.36-.165.671-.42.935-.764.264-.345.473-.777.627-1.298.154-.52.231-1.14.231-1.859 0-.719-.077-1.34-.231-1.865-.154-.524-.363-.958-.627-1.303s-.576-.6-.935-.764c-.36-.165-.748-.248-1.166-.248-.418 0-.807.083-1.166.248-.36.165-.673.42-.94.764-.268.345-.477.78-.628 1.303-.15.525-.225 1.146-.225 1.865 0 .719.075 1.338.226 1.859.15.52.359.953.627 1.298.267.345.58.6.94.764.36.166.748.248 1.166.248zm0-.814c-.257 0-.502-.057-.737-.17-.235-.114-.44-.303-.616-.567-.176-.264-.317-.61-.424-1.04-.106-.428-.159-.955-.159-1.578 0-.63.053-1.16.16-1.59.106-.428.247-.773.423-1.034.176-.26.381-.447.616-.56.235-.114.48-.171.737-.171s.502.057.737.17c.235.114.442.301.622.561.18.26.322.605.428 1.034.107.43.16.96.16 1.59 0 .623-.053 1.15-.16 1.579-.106.428-.249.775-.428 1.039-.18.264-.387.453-.622.567-.235.113-.48.17-.737.17zm6.556.814c.418 0 .807-.082 1.166-.248.36-.165.671-.42.935-.764.264-.345.473-.777.627-1.298.154-.52.231-1.14.231-1.859 0-.719-.077-1.34-.231-1.865-.154-.524-.363-.958-.627-1.303s-.576-.6-.935-.764c-.36-.165-.748-.248-1.166-.248-.418 0-.807.083-1.166.248-.36.165-.673.42-.94.764-.268.345-.477.78-.628 1.303-.15.525-.225 1.146-.225 1.865 0 .719.075 1.338.226 1.859.15.52.359.953.627 1.298.267.345.58.6.94.764.36.166.748.248 1.166.248zm0-.814c-.257 0-.502-.057-.737-.17-.235-.114-.44-.303-.616-.567-.176-.264-.317-.61-.424-1.04-.106-.428-.159-.955-.159-1.578 0-.63.053-1.16.16-1.59.106-.428.247-.773.423-1.034.176-.26.381-.447.616-.56.235-.114.48-.171.737-.171s.502.057.737.17c.235.114.442.301.621.561.18.26.323.605.43 1.034.106.43.159.96.159 1.59 0 .623-.053 1.15-.16 1.579-.106.428-.249.775-.429 1.039-.18.264-.386.453-.621.567-.235.113-.48.17-.737.17zm7.843.66v-3.201h1.331c.44 0 .842-.05 1.205-.148.363-.1.676-.252.94-.457.264-.205.468-.466.61-.781.143-.315.215-.686.215-1.111 0-.44-.073-.81-.22-1.111-.147-.3-.352-.545-.616-.732-.264-.186-.581-.32-.951-.401-.37-.08-.783-.121-1.238-.121h-2.299V17.6h1.023zm1.199-4.026h-1.199v-3.212h1.155c.711 0 1.245.112 1.6.335.356.224.534.626.534 1.205 0 .58-.17 1.003-.511 1.27-.342.268-.868.402-1.579.402zm14.751 4.84V8.558h-.902v9.856h.902zm-7.546-1.892c.279-.14.546-.32.803-.544.257-.224.495-.477.715-.76.22-.282.418-.588.594-.918.176-.33.319-.675.429-1.034.117.337.264.66.44.968.176.308.376.59.6.847.223.257.465.488.725.693.26.205.534.374.82.506l.506-.726c-.367-.154-.71-.37-1.028-.649-.32-.279-.598-.596-.837-.951-.238-.356-.427-.74-.566-1.15-.14-.41-.209-.825-.209-1.243v-1.254h2.321v-.748h-5.511v.748h2.288v1.254c0 .425-.07.854-.209 1.287-.14.433-.328.84-.566 1.221-.239.381-.517.722-.836 1.023-.32.3-.655.535-1.007.704l.528.726zm18.546-3.212v-.737h-1.419c.132-.616.209-1.151.231-1.606.022-.455.033-.873.033-1.254v-.715h-6.666v.737h5.775c0 .374-.011.788-.033 1.243-.022.455-.103.986-.242 1.595H53.24v.737h8.965zm-1.166 4.972v-4.081h-.891v1.298h-4.851v-1.298h-.891v4.081h6.633zm-.891-.726h-4.851v-1.353h4.851v1.353z"/>
    </g>
</svg>
