<svg xmlns="http://www.w3.org/2000/svg" width="32" height="32" viewBox="0 0 32 32">
    <g fill="none" fill-rule="evenodd" transform="translate(0 1)">
        <circle cx="18.5" cy="16.5" r="13.5" fill="#E5D1FF"/>
        <circle cx="13.5" cy="13.5" r="13" fill="#FFF" stroke="#510F9D"/>
        <path fill="#9E64E6" d="M12.526 10.998a1.181 1.181 0 0 0-.491-.492c-.212-.113-.43-.173-.966-.173h-.638c-.537 0-.754.06-.966.173-.212.114-.378.28-.491.492-.114.212-.174.429-.174.966v4.538c0 .537.06.754.174.966.113.211.28.378.491.491.212.113.43.174.966.174h.638c.537 0 .754-.06.966-.174.212-.113.378-.28.491-.491.114-.212.174-.43.174-.966v.33c0 .236.062.456.171.646.054.144.134.278.238.396l4.002 4.56a1.076 1.076 0 0 0 1.6.02l.161-.175a1.3 1.3 0 0 0 .169-1.534l-1.517-2.612h5.072a1.3 1.3 0 0 0 1.234-1.711l-1.734-5.2a1.3 1.3 0 0 0-1.233-.89H14a1.3 1.3 0 0 0-1.3 1.3v.332c0-.537-.06-.754-.174-.966z"/>
        <path fill="#FFF" d="M8.131 8.4h.638c.537 0 .754.06.966.174.212.113.378.28.491.491.114.212.174.43.174.966v4.538c0 .537-.06.754-.174.966-.113.212-.28.378-.491.491-.212.114-.43.174-.966.174h-.638c-.537 0-.754-.06-.966-.174a1.181 1.181 0 0 1-.491-.491c-.114-.212-.174-.43-.174-.966v-4.538c0-.537.06-.754.174-.966.113-.212.28-.378.491-.491.212-.114.43-.174.966-.174z"/>
        <path fill="#FFF" stroke="#420386" d="M16.33 19.933c.028-.025.055-.052.081-.08l.161-.174a1.3 1.3 0 0 0 .169-1.534l-1.517-2.612h5.072a1.3 1.3 0 0 0 1.234-1.711l-1.734-5.2a1.3 1.3 0 0 0-1.233-.89H11.7a1.3 1.3 0 0 0-1.3 1.3v5.2c0 .236.062.456.171.646.054.144.134.278.238.396l4.002 4.56a1.076 1.076 0 0 0 1.519.099z"/>
        <path stroke="#420386" d="M7.65 8h.7c.56 0 .773.06.985.174.212.113.378.28.491.491.114.212.174.425.174.985v4.7c0 .56-.06.773-.174.985-.113.212-.28.378-.491.491-.212.114-.425.174-.985.174h-.7c-.56 0-.773-.06-.985-.174a1.181 1.181 0 0 1-.491-.491C6.06 15.123 6 14.91 6 14.35v-4.7c0-.56.06-.773.174-.985.113-.212.28-.378.491-.491C6.877 8.06 7.09 8 7.65 8z"/>
    </g>
</svg>
