<svg xmlns="http://www.w3.org/2000/svg" xmlns:xlink="http://www.w3.org/1999/xlink" width="28" height="28" viewBox="0 0 28 28">
    <defs>
        <path id="nijh016eva" d="M0 0.583L22.75 0.583 22.75 15.166 0 15.166z"/>
    </defs>
    <g fill="none" fill-rule="evenodd">
        <g>
            <g>
                <g>
                    <g>
                        <path fill="#000" d="M18.083 20.417c-.322 0-.583-.262-.583-.584 0-.322.261-.583.583-.583.322 0 .584.261.584.583 0 .322-.262.584-.584.584m0-3.5c-1.607 0-2.916 1.309-2.916 2.916 0 1.608 1.309 2.917 2.916 2.917 1.608 0 2.917-1.309 2.917-2.917 0-1.607-1.309-2.916-2.917-2.916M6.417 20.417c-.322 0-.584-.262-.584-.584 0-.322.262-.583.584-.583.322 0 .583.261.583.583 0 .322-.261.584-.583.584m0-3.5c-1.608 0-2.917 1.309-2.917 2.916 0 1.608 1.309 2.917 2.917 2.917 1.607 0 2.916-1.309 2.916-2.917 0-1.607-1.309-2.916-2.916-2.916" transform="translate(-331 -32) translate(205 20) translate(126 12) translate(2.333 2.333)"/>
                        <g transform="translate(-331 -32) translate(205 20) translate(126 12) translate(2.333 2.333) translate(0 .583)">
                            <mask id="lrlev6ui4b" fill="#fff">
                                <use xlink:href="#nijh016eva"/>
                            </mask>
                            <path fill="#000" d="M16.917 12.833H5.545l-.917-7h12.289c1.93 0 3.5 1.57 3.5 3.5s-1.57 3.5-3.5 3.5m0-9.334H4.322l-.248-1.9C3.997 1.018 3.502.583 2.917.583h-1.75C.523.583 0 1.105 0 1.749c0 .646.523 1.167 1.167 1.167h.726l.244 1.862c.002.014-.006.028-.003.04l1.174 8.905.056.428c.011.082.047.15.073.225.021.06.03.125.058.18.03.056.08.098.118.148.047.058.084.125.14.174.046.04.104.06.154.093.066.041.126.091.199.12.129.048.269.075.414.075h12.397c3.216 0 5.833-2.617 5.833-5.833s-2.617-5.834-5.833-5.834" mask="url(#lrlev6ui4b)"/>
                        </g>
                    </g>
                </g>
            </g>
        </g>
    </g>
</svg>
