<svg xmlns="http://www.w3.org/2000/svg" xmlns:xlink="http://www.w3.org/1999/xlink" width="24" height="24"
  viewBox="0 0 24 24">
  <defs>
    <path id="pathFacebookA"
      d="M22 11c0-6.075-4.925-11-11-11S0 4.925 0 11c0 5.49 4.023 10.041 9.281 10.866V14.18H6.488V11h2.793V8.577c0-2.757 1.642-4.28 4.155-4.28 1.204 0 2.462.215 2.462.215v2.707h-1.387c-1.366 0-1.792.848-1.792 1.718V11h3.05l-.487 3.18h-2.563v7.686C17.977 21.041 22 16.49 22 11" />
  </defs>
  <g fill="none" fill-rule="evenodd" transform="translate(1 1)">
    <mask id="pathFacebookB" fill="#fff">
      <use xlink:href="#pathFacebookA" />
    </mask>
    <use fill="#0A0B09" xlink:href="#pathFacebookA" />
    <path fill="#FFF" d="M-1-1.14h24v24H-1z" mask="url(#pathFacebookB)" />
  </g>
</svg>