<svg xmlns="http://www.w3.org/2000/svg" width="24" height="24" viewBox="0 0 24 24">
    <g fill="#000" fill-rule="nonzero">
        <path d="M12 3l8 2.707v7.336c0 3.866-3.312 6.882-7.693 8.823L12 22l-.406-.179C7.466 19.946 4.13 16.701 4 13.043V5.707L12 3zm0 2.111L5.999 7.142v5.83c.084 2.396 2.307 4.972 5.76 6.712l.245.12.17-.08c3.633-1.76 5.702-4.052 5.82-6.461l.006-.22-.001-5.902L12 5.111z"/>
        <path d="M14.412 9.29l1.407 1.42-4.47 4.426-2.756-2.851 1.438-1.39 1.349 1.395z"/>
    </g>
</svg>
