<svg xmlns="http://www.w3.org/2000/svg" xmlns:xlink="http://www.w3.org/1999/xlink" width="24" height="24" viewBox="0 0 24 24">
    <defs>
        <path id="registerProcessA" d="M13.5.72a6.35 6.35 0 0 1 2.84 12.03 6.35 6.35 0 1 1-12.683-.002A6.35 6.35 0 1 1 10 1.771a6.319 6.319 0 0 1 3.501-1.05zM10 12.37a6.328 6.328 0 0 1-3.5 1.05c-.39 0-.773-.035-1.143-.103a4.65 4.65 0 0 0 9.287.001 6.444 6.444 0 0 1-1.144.102 6.32 6.32 0 0 1-3.5-1.05zM7.5 9.15l-.016.01a4.662 4.662 0 0 0-1.905 2.468 4.63 4.63 0 0 0 3.087-.442A6.336 6.336 0 0 1 7.5 9.15zm4.948.151c-.26.695-.64 1.331-1.112 1.885a4.672 4.672 0 0 0 3.087.442 4.66 4.66 0 0 0-1.718-2.341l-.203-.138-.054.152zM6.5 2.421a4.65 4.65 0 0 0-2.501 8.57 6.367 6.367 0 0 1 3.16-3.601 6.325 6.325 0 0 1 1.506-4.436A4.625 4.625 0 0 0 6.5 2.42zm7 0a4.63 4.63 0 0 0-2.165.533A6.32 6.32 0 0 1 12.85 7.07l-.008.321a6.365 6.365 0 0 1 3.16 3.599A4.65 4.65 0 0 0 13.5 2.42zm-3.5 6c-.316 0-.625.03-.923.09.198.604.514 1.153.922 1.62.41-.467.726-1.016.923-1.619A4.611 4.611 0 0 0 10 8.42zm0-4.412l-.056.065a4.63 4.63 0 0 0-1.088 2.748 6.425 6.425 0 0 1 2.287 0l-.02-.248a4.63 4.63 0 0 0-1.122-2.565z"/>
    </defs>
    <g fill="none" fill-rule="evenodd" transform="translate(2 2)">
        <mask id="registerProcessB" fill="#fff">
            <use xlink:href="#registerProcessA"/>
        </mask>
        <use fill="#979797" fill-rule="nonzero" xlink:href="#registerProcessA"/>
        <g fill="#000" mask="url(#registerProcessB)">
            <path d="M-2-2h24v24H-2z"/>
        </g>
    </g>
</svg>
