<svg xmlns="http://www.w3.org/2000/svg" xmlns:xlink="http://www.w3.org/1999/xlink" width="32" height="32" viewBox="0 0 32 32">
    <defs>
        <circle id="fdaIconA" cx="15" cy="15" r="8"/>
        <mask id="fdaIconB" width="18" height="18" x="-1" y="-1">
            <path fill="#fff" d="M6 6h18v18H6z"/>
            <use xlink:href="#fdaIconA"/>
        </mask>
    </defs>
    <g fill="none" fill-rule="evenodd" transform="translate(0 1)">
        <use stroke="#9E64E6" stroke-dasharray="1" stroke-width="2" mask="url(#fdaIconB)" xlink:href="#fdaIconA"/>
        <circle cx="14" cy="14" r="13" fill="#FFF"/>
        <circle cx="18" cy="17" r="13" fill="#E5D1FF"/>
        <path fill="#FAF6FF" fill-rule="nonzero" d="M9.482 14.261l-2.632.706.388 1.448.99-.265-.017-.068c-.057-.211-.052-.383.016-.517.067-.133.197-.226.39-.277a.621.621 0 0 1 .454.033c.133.067.22.174.26.322l.366 1.37c.068.252.071.445.01.579-.061.134-.194.228-.397.282-.193.052-.35.04-.474-.034-.123-.074-.211-.213-.266-.416l-.027-.102-.99.265.444 1.658.317-.085c.249-.066.44-.066.573.001.133.068.229.21.286.424.06.223.048.398-.035.525-.083.128-.247.224-.492.29l-1.693.453c-.245.066-.435.065-.571-.004-.136-.07-.233-.215-.293-.437-.054-.2-.043-.366.03-.497.075-.131.21-.223.406-.275l.096-.026-1.131-4.222-.096.025c-.193.052-.355.038-.488-.042-.132-.08-.225-.22-.279-.42-.059-.218-.046-.393.039-.522.084-.13.247-.227.489-.292l4.635-1.242c.23-.062.395-.069.495-.02.1.048.178.175.233.383l.34 1.268c.068.252.069.448.003.587-.066.14-.207.238-.422.295-.215.058-.384.044-.509-.042-.124-.086-.22-.258-.289-.514l-.16-.595zm3.87 3.55l-1.132-4.223-.096.026c-.204.055-.373.043-.507-.034s-.228-.218-.283-.422c-.058-.218-.044-.393.042-.523.087-.13.256-.23.509-.297l1.398-.375c.788-.211 1.375-.332 1.76-.362.383-.03.725 0 1.024.09.53.148.983.442 1.361.88.379.44.656.989.833 1.65.187.697.212 1.345.075 1.942a2.873 2.873 0 0 1-.862 1.501 2.874 2.874 0 0 1-.74.48c-.294.138-.747.289-1.358.453l-1.692.453c-.26.07-.459.071-.594.004-.135-.067-.233-.213-.294-.44-.053-.2-.041-.366.037-.498s.218-.225.422-.28l.096-.025zm.322-4.637l1.138 4.245.322-.086c.713-.191 1.193-.507 1.439-.947.246-.44.272-1.022.078-1.747-.191-.713-.506-1.198-.946-1.457-.439-.258-1.006-.294-1.7-.108a5.79 5.79 0 0 0-.206.058 2.233 2.233 0 0 0-.125.042zm11.7 1.415l.096-.026c.203-.054.372-.044.505.032.134.075.227.213.281.413.06.222.047.398-.038.526-.085.128-.256.226-.512.295l-1.704.456c-.26.07-.458.071-.593.004-.136-.066-.233-.213-.294-.44-.059-.218-.046-.39.038-.513.084-.124.256-.22.517-.29l.198-.053-.41-.6-2.445.655-.065.727.198-.053c.256-.069.453-.07.59-.003.137.066.235.207.292.422.06.222.047.398-.038.526-.085.127-.256.226-.512.295l-1.46.39c-.26.07-.459.071-.595.002-.135-.069-.233-.214-.293-.437-.053-.2-.041-.366.037-.498s.218-.225.422-.28l.096-.026.386-4.628-.453.121c-.256.069-.454.07-.591 0-.138-.068-.236-.211-.294-.43-.06-.223-.047-.398.038-.526.085-.128.255-.226.512-.295l2.122-.568c.336-.09.62.028.853.353l.005.017 3.11 4.432zm-4.098-3.427l-.18 2.608 1.641-.44-1.46-2.168z"/>
        <path fill="#9E64E6" fill-rule="nonzero" d="M15.097 24.946A11.12 11.12 0 0 1 14 25v-1c.337 0 .67-.017.998-.05l.099.996zm2.158-.436c-.35.109-.706.2-1.067.272l-.198-.98c.33-.067.653-.15.97-.247l.295.955zm2.047-.87c-.322.177-.652.338-.99.482l-.392-.92c.308-.13.608-.277.9-.438l.482.876zm1.864-1.294c-.278.24-.568.464-.869.674l-.573-.82c.274-.19.537-.395.79-.612l.652.758zm1.487-1.554c-.227.289-.467.565-.722.83l-.72-.693c.23-.24.45-.492.656-.755l.786.618zm1.204-1.905c-.163.328-.342.649-.538.96l-.846-.533c.177-.282.34-.573.489-.872l.895.445zm.777-2.062c-.095.355-.206.705-.336 1.048l-.936-.352c.117-.31.22-.628.305-.952l.967.256zm.344-2.126c-.023.367-.064.732-.123 1.093l-.987-.162c.053-.326.091-.658.112-.994l.998.063zm-.083-2.224c.05.362.083.728.097 1.096l-1 .038a10.057 10.057 0 0 0-.087-.996l.99-.138zm-.52-2.14c.121.345.226.697.313 1.055l-.971.236a9.922 9.922 0 0 0-.286-.958l.943-.334zm-.955-2.018c.19.314.364.638.522.97l-.904.428a9.976 9.976 0 0 0-.474-.88l.856-.518zm-1.31-1.75c.247.271.482.554.701.847l-.8.6c-.2-.268-.413-.525-.639-.77l.737-.676zm-1.668-1.484c.297.215.583.444.857.688l-.663.748c-.25-.222-.51-.43-.78-.626l.586-.81zm-1.958-1.13c.335.15.663.316.98.499l-.497.867a9.966 9.966 0 0 0-.89-.453l.407-.913zm-2.01-.674c.358.083.711.183 1.058.3l-.32.948a9.923 9.923 0 0 0-.963-.273l.224-.975zm-2.234.724l.023-1c.368.009.734.036 1.096.08l-.122.993a10.08 10.08 0 0 0-.997-.073zm-2.188-.83c.36-.065.723-.112 1.09-.14l.077.997c-.335.026-.666.068-.991.127l-.176-.985zm-2.123.605c.34-.135.688-.254 1.041-.355l.275.961c-.322.092-.638.2-.946.323l-.37-.929zM7.944 4.816c.306-.202.622-.39.947-.56l.465.885a9.994 9.994 0 0 0-.86.51l-.552-.835zM6.253 6.19c.26-.258.533-.503.818-.735l.63.777c-.259.21-.507.433-.744.668l-.704-.71zM4.832 7.92c.203-.305.42-.6.653-.884l.774.633c-.211.258-.41.526-.594.804l-.833-.553zM3.779 9.927c.136-.341.29-.675.459-1l.887.461a9.95 9.95 0 0 0-.417.91l-.929-.371zm-.589 2.026c.068-.362.155-.719.258-1.07l.96.283a9.932 9.932 0 0 0-.235.972l-.983-.185zm-.188 2.236a11.62 11.62 0 0 1 .036-1.114l.997.083a10.133 10.133 0 0 0-.034 1.014l-1 .017zm.254 2.182a10.97 10.97 0 0 1-.182-1.085l.994-.116c.039.334.094.663.165.986l-.977.215zm.692 2.102a10.93 10.93 0 0 1-.397-1.027l.95-.313c.105.318.225.63.36.933l-.913.407zm1.12 1.948a11.011 11.011 0 0 1-.598-.924l.866-.5c.167.29.349.57.543.84l-.811.584zm1.436 1.63c-.268-.25-.524-.513-.766-.789l.75-.66c.221.25.454.49.698.717l-.682.732zm1.788 1.354a11.02 11.02 0 0 1-.91-.618l.602-.798c.266.2.542.388.828.561l-.52.855zm2.053.973a10.935 10.935 0 0 1-1.018-.417l.425-.905c.3.14.61.268.926.379l-.333.943zm2.038.504a10.95 10.95 0 0 1-1.08-.215l.245-.97c.321.081.648.147.98.196l-.145.989zM13.991 24v1c-.16 0-.32-.004-.48-.01l.044-1c.145.007.29.01.436.01z"/>
        <circle cx="14" cy="14" r="13.5" stroke="#3E0A7D"/>
        <path fill="#3E0A7D" fill-rule="nonzero" d="M8.482 13.261l-2.632.706.388 1.448.99-.265-.017-.068c-.057-.211-.052-.383.016-.517.067-.133.197-.226.39-.277a.621.621 0 0 1 .454.033c.133.067.22.174.26.322l.366 1.37c.068.252.071.445.01.579-.061.134-.194.228-.397.282-.193.052-.35.04-.474-.034-.123-.074-.211-.213-.266-.416l-.027-.102-.99.265.444 1.658.317-.085c.249-.066.44-.066.573.001.133.068.229.21.286.424.06.223.048.398-.035.525-.083.128-.247.224-.492.29l-1.693.453c-.245.066-.435.065-.571-.004-.136-.07-.233-.215-.293-.437-.054-.2-.043-.366.03-.497.075-.131.21-.223.406-.275l.096-.026-1.131-4.222-.096.025c-.193.052-.355.038-.488-.042-.132-.08-.225-.22-.279-.42-.059-.218-.046-.393.039-.522.084-.13.247-.227.489-.292l4.635-1.242c.23-.062.395-.069.495-.02.1.048.178.175.233.383l.34 1.268c.068.252.069.448.003.587-.066.14-.207.238-.422.295-.215.058-.384.044-.509-.042-.124-.086-.22-.258-.289-.514l-.16-.595zm3.87 3.55l-1.132-4.223-.096.026c-.204.055-.373.043-.507-.034s-.228-.218-.283-.422c-.058-.218-.044-.393.042-.523.087-.13.256-.23.509-.297l1.398-.375c.788-.211 1.375-.332 1.76-.362.383-.03.725 0 1.024.09.53.148.983.442 1.361.88.379.44.656.989.833 1.65.187.697.212 1.345.075 1.942a2.873 2.873 0 0 1-.862 1.501 2.874 2.874 0 0 1-.74.48c-.294.138-.747.289-1.358.453l-1.692.453c-.26.07-.459.071-.594.004-.135-.067-.233-.213-.294-.44-.053-.2-.041-.366.037-.498s.218-.225.422-.28l.096-.025zm.322-4.637l1.138 4.245.322-.086c.713-.191 1.193-.507 1.439-.947.246-.44.272-1.022.078-1.747-.191-.713-.506-1.198-.946-1.457-.439-.258-1.006-.294-1.7-.108a5.79 5.79 0 0 0-.206.058 2.233 2.233 0 0 0-.125.042zm11.7 1.415l.096-.026c.203-.054.372-.044.505.032.134.075.227.213.281.413.06.222.047.398-.038.526-.085.128-.256.226-.512.295l-1.704.456c-.26.07-.458.071-.593.004-.136-.066-.233-.213-.294-.44-.059-.218-.046-.39.038-.513.084-.124.256-.22.517-.29l.198-.053-.41-.6-2.445.655-.065.727.198-.053c.256-.069.453-.07.59-.003.137.066.235.207.292.422.06.222.047.398-.038.526-.085.127-.256.226-.512.295l-1.46.39c-.26.07-.459.071-.595.002-.135-.069-.233-.214-.293-.437-.053-.2-.041-.366.037-.498s.218-.225.422-.28l.096-.026.386-4.628-.453.121c-.256.069-.454.07-.591 0-.138-.068-.236-.211-.294-.43-.06-.223-.047-.398.038-.526.085-.128.255-.226.512-.295l2.122-.568c.336-.09.62.028.853.353l.005.017 3.11 4.432zm-4.098-3.427l-.18 2.608 1.641-.44-1.46-2.168z"/>
    </g>
</svg>
