<svg xmlns="http://www.w3.org/2000/svg" xmlns:xlink="http://www.w3.org/1999/xlink" width="24" height="24" viewBox="0 0 24 24">
    <defs>
        <filter id="fjq9ikpvqa">
            <feColorMatrix in="SourceGraphic" values="0 0 0 0 0.000000 0 0 0 0 0.000000 0 0 0 0 0.000000 0 0 0 1.000000 0"/>
        </filter>
        <path id="q077fv7n5b" d="M0 0L18 0 18 20 0 20z"/>
    </defs>
    <g fill="none" fill-rule="evenodd">
        <g>
            <g>
                <g>
                    <g filter="url(#fjq9ikpvqa)" transform="translate(-176 -142) translate(48 137) translate(110) translate(18 5)">
                        <g transform="translate(3 2)">
                            <mask id="nonunqrnsc" fill="#fff">
                                <use xlink:href="#q077fv7n5b"/>
                            </mask>
                            <path fill="#000" d="M3.748 18h10.503l1.594-11H2.155l1.593 11zm11.37 2H2.881c-.497 0-.918-.365-.989-.857l-1.883-13c-.04-.287.044-.578.234-.797C.434 5.126.71 5 1 5h16c.29 0 .566.126.756.346.19.219.275.51.234.798l-1.883 13c-.07.491-.493.856-.99.856zM5.401 4.25c-.147 0-.296-.032-.437-.101-.496-.241-.703-.839-.462-1.336.052-.107.107-.211.167-.313C5.561.958 7.22 0 9 0c1.772 0 3.428.952 4.321 2.483.058.099.113.202.164.306.244.496.04 1.095-.457 1.338-.497.246-1.095.04-1.338-.456-.03-.061-.06-.12-.096-.178C11.057 2.571 10.064 2 9 2c-1.068 0-2.064.575-2.599 1.5-.036.061-.069.123-.1.187-.173.356-.529.563-.9.563" mask="url(#nonunqrnsc)"/>
                        </g>
                    </g>
                </g>
            </g>
        </g>
    </g>
</svg>
