<svg xmlns="http://www.w3.org/2000/svg" width="32" height="32" viewBox="0 0 32 32">
    <g fill="none" fill-rule="evenodd" transform="translate(0 1)">
        <circle cx="9" cy="9" r="8" fill="#FAF6FF"/>
        <circle cx="18.5" cy="21.5" r="8.5" fill="#E5D1FF"/>
        <circle cx="23.5" cy="11.5" r="8.5" fill="#C6A0F7"/>
        <circle cx="11.5" cy="11.5" r="8.5" fill="#E5D1FF"/>
        <path fill="#FAF6FF" d="M21 1a8 8 0 0 1 1.699 15.82 8 8 0 1 1-9.397-5.639A8 8 0 0 1 21 1z"/>
        <path fill="#3E0A7D" d="M21 0a9 9 0 0 1 2.88 17.53 9 9 0 1 1-17.76-.001A9.001 9.001 0 1 1 15 2.291 8.962 8.962 0 0 1 21 0zm-6 15.708A8.962 8.962 0 0 1 9 18c-.655 0-1.294-.07-1.91-.203a8 8 0 1 0 15.82 0A8.98 8.98 0 0 1 21 18a8.967 8.967 0 0 1-6-2.292zm-2.661-4.254l-.18.065a8.02 8.02 0 0 0-4.858 5.3A8.011 8.011 0 0 0 9 17a7.97 7.97 0 0 0 5.292-2 8.978 8.978 0 0 1-1.953-3.546zm5.394.025l-.017.155a5.076 5.076 0 0 1-.663 1.887 7.255 7.255 0 0 1-1.235 1.571l-.11-.092A7.967 7.967 0 0 0 21 17a8.03 8.03 0 0 0 1.699-.18 8.017 8.017 0 0 0-4.966-5.341zM9 1a8 8 0 0 0-2.66 15.547 9.017 9.017 0 0 1 5.781-6.077A8.966 8.966 0 0 1 14.291 3 7.967 7.967 0 0 0 9 1zm12 0a7.97 7.97 0 0 0-5.292 2A8.962 8.962 0 0 1 18 9c0 .501-.041.993-.12 1.472a9.016 9.016 0 0 1 5.781 6.074A8.002 8.002 0 0 0 21 1zm-6 2.709l-.052.058A7.969 7.969 0 0 0 13 9c0 .41.03.811.09 1.204a9.035 9.035 0 0 1 3.82-.001c.06-.392.09-.794.09-1.203a7.97 7.97 0 0 0-2-5.291z"/>
    </g>
</svg>
