<svg xmlns="http://www.w3.org/2000/svg" width="172" height="61" viewBox="0 0 172 61">
  <g fill="#6415B7" fill-rule="nonzero">
    <path d="M29.512 45.448v12.236c0 2.128 1.368 3.04 3.42 3.04 2.052 0 3.496-.912 3.496-3.116v-12.16h7.144c1.976 0 2.888-1.444 2.888-3.192 0-1.824-.912-3.04-2.888-3.04h-7.144V4.256c0-3.04-1.672-4.256-4.256-4.256-3.086 0-4.396 1.136-6.127 3.478L2.684 35.34C1.088 37.468.328 38.912.328 41.42c0 2.66 1.672 4.028 4.18 4.028h25.004zm-19.38-9.5l14.136-19.836c2.356-3.268 4.104-6.08 5.852-8.968-.38 4.18-.608 8.968-.608 12.54v19.532h-18.31c-1.196.005-2.666.028-4.034.152l.827-.887c.798-.866 1.51-1.678 2.137-2.533zM153.512 45.448v12.236c0 2.128 1.368 3.04 3.42 3.04 2.052 0 3.496-.912 3.496-3.116v-12.16h7.144c1.976 0 2.888-1.444 2.888-3.192 0-1.824-.912-3.04-2.888-3.04h-7.144V4.256c0-3.04-1.672-4.256-4.256-4.256-3.086 0-4.396 1.136-6.127 3.478L126.684 35.34c-1.596 2.128-2.356 3.572-2.356 6.08 0 2.66 1.672 4.028 4.18 4.028h25.004zm-19.38-9.5l14.136-19.836c2.356-3.268 4.104-6.08 5.852-8.968-.38 4.18-.608 8.968-.608 12.54v19.532h-18.31c-1.196.005-2.666.028-4.034.152l.826-.887c.798-.866 1.511-1.678 2.138-2.533zM85.328 0c16.569 0 30 13.431 30 30 0 16.569-13.431 30-30 30-16.569 0-30-13.431-30-30 0-16.569 13.431-30 30-30zm0 6c-13.255 0-24 10.745-24 24s10.745 24 24 24 24-10.745 24-24-10.745-24-24-24z"/>
    <path d="M85.101 33.5c5.06 0 9.333 1.893 12.64 5.61a2.5 2.5 0 1 1-3.735 3.324c-2.353-2.645-5.263-3.934-8.905-3.934-3.642 0-6.552 1.29-8.905 3.934a2.5 2.5 0 0 1-3.736-3.323c3.308-3.718 7.58-5.611 12.641-5.611zM77.861 19c1.952 0 3.535 1.555 3.535 3.471 0 1.92-1.583 3.471-3.534 3.471-1.951 0-3.534-1.552-3.534-3.47 0-1.917 1.583-3.472 3.534-3.472zm14.48 0c1.953 0 3.533 1.555 3.533 3.471 0 1.92-1.58 3.471-3.534 3.471-1.95 0-3.534-1.552-3.534-3.47 0-1.917 1.583-3.472 3.534-3.472z"/>
  </g>
</svg>
