<svg xmlns="http://www.w3.org/2000/svg" viewBox="0 0 114 75">
    <g fill="none" fill-rule="evenodd">
        <path fill="#000" d="M46.71 40.24l-6.092 3.288c-7.173 3.881-2.256 10.318 2.321 7.573 3.828-2.295 18.397-10.615 18.397-10.615 1.583-1.709-.565-3.518-.565-5.19 0-1.674 2.376-8.048 1.984-13.517-1.584-22.06-23.227-18.265-24.032-.89"/>
        <path stroke="#000" stroke-linecap="round" stroke-linejoin="round" stroke-width="1.5" d="M46.71 40.24l-6.092 3.288c-7.173 3.881-2.256 10.318 2.321 7.573 3.828-2.295 18.397-10.615 18.397-10.615 1.583-1.709-.565-3.518-.565-5.19 0-1.674 2.376-8.048 1.984-13.517-1.584-22.06-23.227-18.265-24.032-.89"/>
        <path fill="#000" d="M78.03 38.716c.81-.44 1.86-1.125 1.86-2.73 0-1.662 1.805-2.307 1.805-2.307l7.828-3.14c3.106-1.24 8.241-1.707 12.345 0 4.78 1.99 4.502 3.353 1.416 4.67l-2.365.868s-2.463.762-2.463 3.412c0 2.143 2.22 2.845 3.786 2.428.934-.248 1.997-.624 1.997-.624l3.535-1.687c13.61-6.496-3.607-23.212-26.664-12.545"/>
        <path stroke="#000" stroke-linecap="round" stroke-linejoin="round" stroke-width="1.5" d="M78.03 38.716c.81-.44 1.86-1.125 1.86-2.73 0-1.662 1.805-2.307 1.805-2.307l7.828-3.14c3.106-1.24 8.241-1.707 12.345 0 4.78 1.99 4.502 3.353 1.416 4.67l-2.365.868s-2.463.762-2.463 3.412c0 2.143 2.22 2.845 3.786 2.428.934-.248 1.997-.624 1.997-.624l3.535-1.687c13.61-6.496-3.607-23.212-26.664-12.545"/>
        <path fill="#000" d="M27.805 66.298c-1.483 1.12-7.348-.82-10.23-1.805-2.04-.695-4.282 3.087-1.319 5.323 1.794 1.352 9.86 6.045 15.04 2.85 3.76-2.32 8.022-4.398 11.236-6.186 2.045-1.138 4.871-2.915 4.28-7.334 0 0 3.173-2.292 6.3-4.837 3.126-2.545 10.44-4.424 14.76-5.64l12.841-5.766C95.311 10.045 57.185-8.84 38.23 19.619 33.125 25.027 6.593 44.306 6.593 44.306s-2.337 4.644-.19 9.625c-5.028 7.598 3.578 11.72 5.694 12.873 2.116 1.153 4.624-1.103 2.83-3.83-1.568-1.873-3.697-3.458-3.697-5.09"/>
        <path stroke="#000" stroke-linecap="round" stroke-linejoin="round" stroke-width="1.5" d="M27.805 66.298c-1.483 1.12-7.348-.82-10.23-1.805-2.04-.695-4.282 3.087-1.319 5.323 1.794 1.352 9.86 6.045 15.04 2.85 3.76-2.32 8.022-4.398 11.236-6.186 2.045-1.138 4.871-2.915 4.28-7.334 0 0 3.173-2.292 6.3-4.837 3.126-2.545 10.44-4.424 14.76-5.64l12.841-5.766C95.311 10.045 57.185-8.84 38.23 19.619 33.125 25.027 6.593 44.306 6.593 44.306s-2.337 4.644-.19 9.625c-5.028 7.598 3.578 11.72 5.694 12.873 2.116 1.153 4.624-1.103 2.83-3.83-1.568-1.873-3.697-3.458-3.697-5.09"/>
        <path fill="#000" d="M60.103 40.216c-.8-29.331 23.97-36.577 23.867-11.901-.033 7.804-2.631 12.506-2.631 14.18 0 1.674 1.244 4.04-.34 5.749 0 0-22.008 14.204-27.887 6.065"/>
        <path stroke="#000" stroke-linecap="round" stroke-linejoin="round" stroke-width="1.5" d="M60.103 40.216c-.8-29.331 23.97-36.577 23.867-11.901-.033 7.804-2.631 12.506-2.631 14.18 0 1.674 1.244 4.04-.34 5.749 0 0-22.008 14.204-27.887 6.065"/>
        <path fill="#000" d="M46.812 59.145s3.173-2.292 6.3-4.837c3.126-2.545 6.93-3.439 11.248-4.655"/>
        <path stroke="#000" stroke-linecap="round" stroke-linejoin="round" stroke-width="1.5" d="M46.812 59.145s3.173-2.292 6.3-4.837c3.126-2.545 6.93-3.439 11.248-4.655"/>
        <path fill="#000" d="M40.673 40.498c6.06-28.02-17.45-31.813-22.597-29.837-2.986-2.923-4.89-6.874-6.458-8.78-1.14-1.393-2.101-1.707-3.173.253-2.448 4.474 1.442 13.26-.238 14.38-8.25 5.49-4.517 18.598-4.565 18.797-1.813 7.516 3.254 10.552 5.042 10.859"/>
        <path stroke="#000" stroke-linecap="round" stroke-linejoin="round" stroke-width="1.5" d="M40.673 40.498c6.06-28.02-17.45-31.813-22.597-29.837-2.986-2.923-4.89-6.874-6.458-8.78-1.14-1.393-2.101-1.707-3.173.253-2.448 4.474 1.442 13.26-.238 14.38-8.25 5.49-4.517 18.598-4.565 18.797-1.813 7.516 3.254 10.552 5.042 10.859"/>
        <path fill="#FFF" d="M17.574 64.493c-.757-.258-1.542.103-2.078.771.124-.663-.019-1.454-.569-2.291-1.568-1.872-3.697-3.458-3.697-5.089 0 1.631 2.13 3.217 3.697 5.089.55.837.693 1.628.57 2.291.535-.668 1.32-1.029 2.077-.771 1.69.577 8.612 3.024 10.231 1.805-3.238-3.224-4.483-7.023-4.384-9.084.336-6.963-.023-15.877-6.102-18.547-6.203-2.725-6.2-13.696-6.2-13.696S8.583 34.204 3.641 35.31c-1.813 7.517 3.255 10.553 5.042 10.86 0 4.196 2.19 8.076 2.547 11.714"/>
        <path stroke="#000" stroke-linecap="round" stroke-linejoin="round" stroke-width="1.5" d="M17.574 64.493c-.757-.258-1.542.103-2.078.771.124-.663-.019-1.454-.569-2.291-1.568-1.872-3.697-3.458-3.697-5.089 0 1.631 2.13 3.217 3.697 5.089.55.837.693 1.628.57 2.291.535-.668 1.32-1.029 2.077-.771 1.69.577 8.612 3.024 10.231 1.805-3.238-3.224-4.483-7.023-4.384-9.084.336-6.963-.023-15.877-6.102-18.547-6.203-2.725-6.2-13.696-6.2-13.696S8.583 34.204 3.641 35.31c-1.813 7.517 3.255 10.553 5.042 10.86 0 4.196 2.19 8.076 2.547 11.714"/>
        <path fill="#FFF" d="M14.632 39.592s2.398-.826 6.13 1.402"/>
        <path stroke="#000" stroke-linecap="round" stroke-linejoin="round" stroke-width="1.5" d="M14.632 39.592s2.398-.826 6.13 1.402"/>
        <path fill="#FFF" d="M14.244 41.526s2.606.244 4.133 2.603"/>
        <path stroke="#000" stroke-linecap="round" stroke-linejoin="round" stroke-width="1.5" d="M14.244 41.526s2.606.244 4.133 2.603"/>
        <g>
            <path fill="#FFF" d="M4.022 37.533s-1.13-.93-3.271-.669"/>
            <path stroke="#000" stroke-linecap="round" stroke-linejoin="round" stroke-width="1.5" d="M4.022 37.533s-1.13-.93-3.271-.669"/>
        </g>
        <g>
            <path fill="#FFF" d="M3.903 39.326s-1.927-.187-3.152.724"/>
            <path stroke="#000" stroke-linecap="round" stroke-linejoin="round" stroke-width="1.5" d="M3.903 39.326s-1.927-.187-3.152.724"/>
        </g>
        <g>
            <path fill="#000" d="M37.758 28.499c.267-1.89 6.086-17.751 2.137-19.613-2.706-1.278-6.727 3.738-11.795 8.664"/>
            <path stroke="#000" stroke-linecap="round" stroke-linejoin="round" stroke-width="1.5" d="M37.758 28.499c.267-1.89 6.086-17.751 2.137-19.613-2.706-1.278-6.727 3.738-11.795 8.664"/>
        </g>
        <path fill="#000" d="M5.095 39.814c.352 1.015 2.152 3.378 2.694 3.378 1.479 0 3.168-2.147 3.168-2.147.957-1.958-6.419-2.834-5.863-1.23"/>
        <path stroke="#000" stroke-linecap="round" stroke-linejoin="round" stroke-width="1.5" d="M7.846 42.524s.512 2.18 1.547 2.774c0 0-.56.38-1.62.502"/>
        <g>
            <path fill="#FFF" d="M9.393 45.299s1.533.937 2.52 1.129"/>
            <path stroke="#000" stroke-linecap="round" stroke-linejoin="round" stroke-width="1.5" d="M9.393 45.299s1.533.937 2.52 1.129"/>
        </g>
        <path fill="#FFF" d="M19.601 32.516c.788.453 1.423 1.555 1.421 2.46-.003.906-.642 1.27-1.43.815-.789-.455-1.424-1.555-1.42-2.461.001-.905.64-1.27 1.43-.814M5.944 28.662c.657.38 1.188 1.297 1.186 2.053-.002.755-.537 1.058-1.194.678-.657-.378-1.186-1.296-1.184-2.051.003-.755.535-1.059 1.192-.68"/>
    </g>
</svg>
