<svg xmlns="http://www.w3.org/2000/svg" viewBox="0 0 138 110">
    <g fill="none" fill-rule="evenodd">
        <path fill="#FFF" d="M68.711 64.217l-.668 5.082 32.147 8.049 3.83-3.354z"/>
        <path fill="#FFF" d="M75.518 58.36S63.852 70.5 53.35 55.696l-18.683 6.756-.276.1s-.122.647-.513 2.594c-1.612 8.025-9.996 6.312-10.02.524-.005-1.328 1.536-8.283 1.536-8.283.293-1.965 1.326-3.717 4.861-5.006l24.173-9.544"/>
        <path stroke="#000" stroke-linecap="round" stroke-linejoin="round" stroke-width="1.5" d="M75.518 58.36S63.852 70.5 53.35 55.696l-18.683 6.756-.276.1s-.122.647-.513 2.594c-1.612 8.025-9.996 6.312-10.02.524-.005-1.328 1.536-8.283 1.536-8.283.293-1.965 1.326-3.717 4.861-5.006l24.173-9.544"/>
        <path fill="#FFF" d="M71.127 49.928C25.252 30.036 48.597 1.425 45.82.778c-4.623-1.08-30.981 30.025 25.307 49.15"/>
        <path stroke="#000" stroke-linecap="round" stroke-linejoin="round" stroke-width="1.5" d="M71.127 49.928C25.252 30.036 48.597 1.425 45.82.778c-4.623-1.08-30.981 30.025 25.307 49.15z"/>
        <path fill="#FFF" d="M68.694 74.56l-13.61-4.617-12.467-8.954-3.152-12.912 32.621 2.062z"/>
        <path fill="#FFF" d="M101.633 76.371c-1.447 4.44-9.507 8.287-13.551 8.287 0 0-21.154 2.393-43.19-21.394"/>
        <path stroke="#000" stroke-linecap="round" stroke-linejoin="round" stroke-width="1.5" d="M101.633 76.371c-1.447 4.44-9.507 8.287-13.551 8.287 0 0-21.154 2.393-43.19-21.394"/>
        <path fill="#FFF" d="M99.095 76.475l22.546 22.63c2.654 2.669 4.68 2.87 6.586 2.31 0 0 6.063-3.471 7.069-4.337 3.759-3.242 2.04-10.625-4.683-9.027-1.933.46-3.1 1.452-3.1 1.452l-19.14-19.235c-.084-6.05-1.498-11.824-3.117-13.161.01.009.022.015.032.024L72.493 31.238c-17.1-14.212-34.493-8.292-41.056 5.2-1.089 2.239-2.883 5.61-3.325 8.21L7.409 52.99c-3.536 1.289-4.569 3.042-4.861 5.006 0 0-1.541 6.956-1.536 8.283.023 5.788 8.408 7.5 10.02-.524.391-1.947.512-2.594.512-2.594l.277-.1 15.212-5.555C37.536 72.31 49.202 60.17 49.202 60.17"/>
        <path stroke="#000" stroke-linecap="round" stroke-linejoin="round" stroke-width="1.5" d="M99.095 76.475l22.546 22.63c2.654 2.669 4.68 2.87 6.586 2.31 0 0 6.063-3.471 7.069-4.337 3.759-3.242 2.04-10.625-4.683-9.027-1.933.46-3.1 1.452-3.1 1.452l-19.14-19.235c-.084-6.05-1.498-11.824-3.117-13.161.01.009.022.015.032.024L72.493 31.238c-17.1-14.212-34.493-8.292-41.056 5.2-1.089 2.239-2.883 5.61-3.325 8.21L7.409 52.99c-3.536 1.289-4.569 3.042-4.861 5.006 0 0-1.541 6.956-1.536 8.283.023 5.788 8.408 7.5 10.02-.524.391-1.947.512-2.594.512-2.594l.277-.1 15.212-5.555C37.536 72.31 49.202 60.17 49.202 60.17"/>
        <path fill="#FFF" d="M96.288 77.348l19.116 19.236s1.167-.993 3.099-1.453c6.723-1.598 8.443 5.786 4.683 9.027-1.005.866-7.07 4.339-7.07 4.339-1.905.559-3.931.357-6.584-2.311L86.228 82.798"/>
        <path stroke="#000" stroke-linecap="round" stroke-linejoin="round" stroke-width="1.5" d="M96.288 77.348l19.116 19.236s1.167-.993 3.099-1.453c6.723-1.598 8.443 5.786 4.683 9.027-1.005.866-7.07 4.339-7.07 4.339-1.905.559-3.931.357-6.584-2.311L86.228 82.798"/>
        <path fill="#000" d="M104.968 12.814s10.376 2.247 10.376 10.378c0 8.13 4.313 22.233-2.444 22.233-6.758 0-17.628-4.114-15.572-17.041 2.056-12.925 3.526-15.57 7.64-15.57"/>
        <path fill="#FFF" d="M81.415 20.1c4.963-8.675 34.014-10.894 33.044 15.8 0 0 .262.174 3.3 2.15 13.645 8.886-1.384 30.81-14.745 23.548-3.245-1.764-7.896-5.143-7.896-5.143"/>
        <path stroke="#000" stroke-linecap="round" stroke-linejoin="round" stroke-width="1.5" d="M81.415 20.1c4.963-8.675 34.014-10.894 33.044 15.8 0 0 .262.174 3.3 2.15 13.645 8.886-1.384 30.81-14.745 23.548-3.245-1.764-7.896-5.143-7.896-5.143"/>
        <path fill="#000" d="M82.443 19.078S92.82 21.325 92.82 29.456s4.312 22.233-2.445 22.233-17.627-4.114-15.57-17.04c2.056-12.926 3.525-15.57 7.638-15.57M98.664 33.614c-.841.485-1.52 1.659-1.516 2.626.003.965.685 1.353 1.526.868.84-.484 1.518-1.658 1.516-2.625-.003-.966-.685-1.354-1.526-.87M110.302 29.853c-.745.43-1.344 1.469-1.342 2.323.004.855.607 1.198 1.35.769.744-.43 1.344-1.468 1.342-2.322-.004-.855-.607-1.2-1.35-.77M113.988 48.313c-.251.146-.474.446-.569.768-.096.322-.042.594.135.696l2.444 1.393c.117.066.273.05.438-.044a1.26 1.26 0 0 0 .436-.46l2.428-4.207c.177-.305.229-.64.131-.85-.096-.21-.32-.253-.571-.11l-4.872 2.814z"/>
        <g>
            <path fill="#FFF" d="M116.41 48.968v3.807"/>
            <path stroke="#000" stroke-linecap="round" stroke-linejoin="round" stroke-width="1.5" d="M116.41 48.968v3.807"/>
        </g>
    </g>
</svg>
