<svg xmlns="http://www.w3.org/2000/svg" xmlns:xlink="http://www.w3.org/1999/xlink" width="16" height="16"
  viewBox="0 0 16 16">
  <defs>
    <path id="logoPurplejamA"
      d="M11.935 8.329a.784.784 0 0 0 .123.298.917.917 0 0 0 .101.123.491.491 0 1 1-.696.695c-.058-.057-.106-.124-.156-.19-.03.06-.067.112-.093.175a3.203 3.203 0 0 0-.245 1.225 2.28 2.28 0 0 1-.176.88A2.291 2.291 0 0 1 9.12 12.91a2.355 2.355 0 0 1-.898.001 2.276 2.276 0 0 1-1.464-.979 2.293 2.293 0 0 1-.213-2.156.492.492 0 0 1 .909.376 1.294 1.294 0 0 0-.1.503 1.343 1.343 0 0 0 .1.504 1.302 1.302 0 0 0 .286.428 1.307 1.307 0 0 0 .676.359 1.34 1.34 0 0 0 .756-.076 1.334 1.334 0 0 0 .591-.484 1.316 1.316 0 0 0 .222-.73c0-.268.028-.544.082-.817.054-.27.134-.535.238-.786.073-.176.17-.333.263-.493A12.98 12.98 0 0 1 8 8.848c-.777 0-2.052-.125-2.963-.387-.003.019-.002.04-.006.059a1.82 1.82 0 0 1-.494.925.49.49 0 1 1-.696-.695.847.847 0 0 0 .241-.582.835.835 0 0 0-.241-.582.491.491 0 1 1 .696-.695c.083.083.158.174.224.274.039.058.067.122.099.184.514.267 2.01.516 3.14.516 1.13 0 2.625-.248 3.14-.516.032-.062.06-.126.098-.183.067-.1.142-.192.225-.275a.492.492 0 0 1 .696.695.848.848 0 0 0-.178.268.796.796 0 0 0-.063.314c0 .055.006.109.017.161m-6.34-4.34a.492.492 0 0 1 .696 0c.203.202.36.44.47.704.11.264.165.543.165.83a.492.492 0 0 1-.984 0 1.181 1.181 0 0 0-.347-.838.491.491 0 0 1 0-.695m3.623-.001a.493.493 0 0 1 .696 0 2.16 2.16 0 0 1 .635 1.533.492.492 0 0 1-.984 0 1.181 1.181 0 0 0-.348-.837.492.492 0 0 1 .001-.696M8 0a8 8 0 1 0 0 16A8 8 0 0 0 8 0" />
  </defs>
  <g fill="none" fill-rule="evenodd">
    <mask id="logoPurplejamB" fill="#fff">
      <use xlink:href="#logoPurplejamA" />
    </mask>
    <use fill="#251714" xlink:href="#logoPurplejamA" />
    <g fill="#FFF" mask="url(#logoPurplejamB)">
      <path d="M0 0h16v16H0z" />
    </g>
  </g>
</svg>