<svg xmlns="http://www.w3.org/2000/svg" width="1em" height="1em" viewBox="0 0 44 44">
    <g fill="none" fill-rule="evenodd">
        <g fill-rule="nonzero">
            <g>
                <path fill="#6415B7" d="M21.97 43.94C9.836 43.94 0 34.104 0 21.97 0 9.836 9.836 0 21.97 0c12.134 0 21.97 9.836 21.97 21.97 0 12.134-9.836 21.97-21.97 21.97z" transform="translate(-166 -426) translate(166 426)"/>
                <path fill="#FFF" d="M30.758 27.766c0 4.601-2.777 7.386-6.79 7.386h-.056c-4.546 0-6.9-3.472-6.9-7.8v-1.616h3.841v1.753c0 2.124 1.29 3.363 2.975 3.363h.056c1.937 0 2.975-1.322 2.975-3.444v-3.28H13.145c-1.194 0-2.16-.95-2.16-2.121 0-1.173 1.1-2.122 2.291-2.122h-.131l.131-.002 17.482.002v7.881zM18.679 13.527c0 1.406-1.16 2.542-2.588 2.542-1.429 0-2.588-1.136-2.588-2.542 0-1.403 1.16-2.542 2.588-2.542 1.429 0 2.588 1.139 2.588 2.542zM29.282 13.527c0 1.406-1.157 2.542-2.588 2.542-1.429 0-2.588-1.136-2.588-2.542 0-1.403 1.159-2.542 2.588-2.542 1.43 0 2.588 1.139 2.588 2.542z" transform="translate(-166 -426) translate(166 426)"/>
            </g>
        </g>
    </g>
</svg>
